<svg width="49" height="48" viewBox="0 0 49 48" fill="none" xmlns="http://www.w3.org/2000/svg">
<g filter="url(#filter0_d_24843_5423)">
<rect width="48" height="48" transform="translate(1)" fill="white"/>
<path fill-rule="evenodd" clip-rule="evenodd" d="M20.4673 16.9333C20.5932 16.7655 20.7908 16.6667 21.0007 16.6667H29.0007C29.2105 16.6667 29.4081 16.7655 29.534 16.9333L31.534 19.6C31.6205 19.7154 31.6673 19.8557 31.6673 20V29.3333C31.6673 29.8638 31.4566 30.3725 31.0815 30.7475C30.7065 31.1226 30.1978 31.3333 29.6673 31.3333H20.334C19.8036 31.3333 19.2948 31.1226 18.9198 30.7475C18.5447 30.3725 18.334 29.8638 18.334 29.3333V20C18.334 19.8557 18.3808 19.7154 18.4673 19.6L20.4673 16.9333ZM21.334 18L19.6673 20.2222V29.3333C19.6673 29.5101 19.7376 29.6797 19.8626 29.8047C19.9876 29.9298 20.1572 30 20.334 30H29.6673C29.8441 30 30.0137 29.9298 30.1387 29.8047C30.2637 29.6797 30.334 29.5101 30.334 29.3333V20.2222L28.6673 18H21.334Z" fill="#313237"/>
<path fill-rule="evenodd" clip-rule="evenodd" d="M18.334 20C18.334 19.6318 18.6325 19.3333 19.0007 19.3333H31.0007C31.3688 19.3333 31.6673 19.6318 31.6673 20C31.6673 20.3682 31.3688 20.6667 31.0007 20.6667H19.0007C18.6325 20.6667 18.334 20.3682 18.334 20Z" fill="#313237"/>
<path fill-rule="evenodd" clip-rule="evenodd" d="M22.3346 22C22.7028 22 23.0013 22.2985 23.0013 22.6667C23.0013 23.1971 23.212 23.7058 23.5871 24.0809C23.9622 24.456 24.4709 24.6667 25.0013 24.6667C25.5317 24.6667 26.0404 24.456 26.4155 24.0809C26.7906 23.7058 27.0013 23.1971 27.0013 22.6667C27.0013 22.2985 27.2998 22 27.668 22C28.0362 22 28.3346 22.2985 28.3346 22.6667C28.3346 23.5507 27.9834 24.3986 27.3583 25.0237C26.7332 25.6488 25.8854 26 25.0013 26C24.1172 26 23.2694 25.6488 22.6443 25.0237C22.0192 24.3986 21.668 23.5507 21.668 22.6667C21.668 22.2985 21.9664 22 22.3346 22Z" fill="#313237"/>
</g>
<defs>
<filter id="filter0_d_24843_5423" x="0" y="0" width="49" height="48" filterUnits="userSpaceOnUse" color-interpolation-filters="sRGB">
<feFlood flood-opacity="0" result="BackgroundImageFix"/>
<feColorMatrix in="SourceAlpha" type="matrix" values="0 0 0 0 0 0 0 0 0 0 0 0 0 0 0 0 0 0 127 0" result="hardAlpha"/>
<feOffset dx="-1"/>
<feColorMatrix type="matrix" values="0 0 0 0 0.886275 0 0 0 0 0.901961 0 0 0 0 0.913725 0 0 0 1 0"/>
<feBlend mode="normal" in2="BackgroundImageFix" result="effect1_dropShadow_24843_5423"/>
<feBlend mode="normal" in="SourceGraphic" in2="effect1_dropShadow_24843_5423" result="shape"/>
</filter>
</defs>
</svg>
